# cube.obj
#
 
g cube
 
#vertices
# front
v  -1.0 -1.0  1.0
v  1.0 -1.0  1.0
v  1.0  1.0  1.0
v  -1.0  1.0  1.0
# top
v  -1.0  1.0  1.0
v  1.0  1.0  1.0
v  1.0  1.0 -1.0
v  -1.0  1.0 -1.0
# back
v  1.0 -1.0 -1.0
v  -1.0 -1.0 -1.0
v  -1.0  1.0 -1.0
v  1.0  1.0 -1.0
# bottom
v  -1.0 -1.0 -1.0
v  1.0 -1.0 -1.0
v  1.0 -1.0  1.0
v  -1.0 -1.0  1.0
# left
v  -1.0 -1.0 -1.0
v  -1.0 -1.0  1.0
v  -1.0  1.0  1.0
v  -1.0  1.0 -1.0
# right
v  1.0 -1.0  1.0
v  1.0 -1.0 -1.0
v  1.0  1.0 -1.0
v  1.0  1.0  1.0

#v  0.0  0.0  0.0
#v  1.1  1.1  1.1
#v  2.2  2.2  2.2
#v  3.3  3.3  3.3
#v  4.4  4.4  4.4
#v  5.5  5.5  5.5
#v  6.6  6.6  6.6
#v  7.7  7.7  7.7

#      3_ _ _7   0.0  5.0  0.0   5.0  5.0  0.0
#     /|    /|
#   4/_|_ 8/ |   0.0  5.0  5.0   5.0  5.0  5.0
#   | 1|_ _|_|5  0.0  0.0  0.0   5.0  0.0  0.0
#   | /    | / 
#   |/_ _ _|/    
#   2      6     0.0  0.0  5.0   5.0  0.0  5.0

# normals
# front
vn  0.0 0.0 1.0
vn  0.0 0.0 1.0
vn  0.0 0.0 1.0
vn  0.0 0.0 1.0
# top
vn  0.0 1.0 0.0
vn  0.0 1.0 0.0
vn  0.0 1.0 0.0
vn  0.0 1.0 0.0
# back
vn  0.0 0.0 -1.0
vn  0.0 0.0 -1.0
vn  0.0 0.0 -1.0
vn  0.0 0.0 -1.0
# bottom
vn  0.0 -1.0 0.0
vn  0.0 -1.0 0.0
vn  0.0 -1.0 0.0
vn  0.0 -1.0 0.0
# left
vn  -1.0 0.0 0.0
vn  -1.0 0.0 0.0
vn  -1.0 0.0 0.0
vn  -1.0 0.0 0.0
# right
vn  1.0 0.0 0.0
vn  1.0 0.0 0.0
vn  1.0 0.0 0.0
vn  1.0 0.0 0.0

# The texture mapping is identical for all faces:
# UVs
# front
vt  0.0 0.0
vt  1.0 0.0
vt  1.0 1.0
vt  0.0 1.0
# top
vt  0.0 0.0
vt  1.0 0.0
vt  1.0 1.0
vt  0.0 1.0
# back
vt  0.0 0.0
vt  1.0 0.0
vt  1.0 1.0
vt  0.0 1.0
# bottom
vt  0.0 0.0
vt  1.0 0.0
vt  1.0 1.0
vt  0.0 1.0
# left
vt  0.0 0.0
vt  1.0 0.0
vt  1.0 1.0
vt  0.0 1.0
# right
vt  0.0 0.0
vt  1.0 0.0
vt  1.0 1.0
vt  0.0 1.0

# indices
# f  v/t/n  v/t/n  v/t/n
# front
f  1/1/1  2/2/1  3/3/1
f  3/3/1  4/4/1  1/1/1
# top
f  5/5/5  6/6/6  7/7/7
f  7/7/7  8/8/8  5/5/5
# back
f  9/9/9  10/10/10 11/11/11
f  11/11/11 12/12/12  9/9/9
# bottom
f  13/13/13 14/14/14 15/15/15
f  15/15/15 16/16/16 13/13/13
# left
f  17/17/17 18/18/18 19/19/19
f  19/19/19 20/20/20 17/17/17
# right
f  21/21/21 22/22/22 23/23/23
f  23/23/23 24/24/24 21/21/21
